<?xml version="1.0" standalone="no"?>
<!DOCTYPE svg PUBLIC "-//W3C//DTD SVG 20010904//EN"
 "http://www.w3.org/TR/2001/REC-SVG-20010904/DTD/svg10.dtd">
<svg version="1.0" xmlns="http://www.w3.org/2000/svg"
 width="150.000000pt" height="150.000000pt" viewBox="0 0 150.000000 150.000000"
 preserveAspectRatio="xMidYMid meet">

<g transform="translate(0.000000,150.000000) scale(0.100000,-0.100000)"
fill="#000000" stroke="none">
<path d="M490 909 c-16 -4 -19 -7 -7 -8 15 -1 17 -12 17 -90 0 -77 -2 -90 -17
-94 -10 -3 0 -5 22 -5 22 0 34 2 28 5 -9 3 -13 26 -13 64 0 56 1 59 24 59 31
0 37 -10 40 -66 1 -32 -3 -48 -13 -54 -12 -7 -5 -9 24 -10 23 0 35 4 28 8 -7
4 -14 34 -17 66 -5 65 -17 79 -58 70 -24 -5 -27 -2 -30 28 -3 31 -5 33 -28 27z"/>
<path d="M342 893 c-20 -8 -42 -59 -42 -96 0 -52 33 -87 80 -87 53 0 70 8 69
34 l0 21 -16 -22 c-20 -29 -64 -30 -89 -2 -26 29 -25 116 1 135 29 22 76 18
82 -6 7 -28 23 -25 23 5 0 23 -3 25 -47 24 -27 0 -54 -3 -61 -6z"/>
<path d="M685 848 c-11 -6 -23 -16 -27 -22 -12 -18 -9 -91 4 -104 19 -19 73
-14 92 7 26 29 24 91 -4 113 -26 21 -37 22 -65 6z m59 -24 c10 -26 7 -79 -6
-92 -30 -30 -68 -1 -68 52 0 41 10 56 40 56 16 0 30 -7 34 -16z"/>
<path d="M826 839 c-21 -16 -26 -29 -26 -63 0 -50 13 -66 55 -66 43 0 65 27
65 78 0 31 -5 45 -22 56 -29 21 -40 20 -72 -5z m70 -23 c15 -61 -16 -114 -53
-90 -18 11 -29 73 -19 100 3 8 19 14 35 14 24 0 32 -5 37 -24z"/>
<path d="M972 840 c-27 -25 -30 -90 -6 -114 18 -19 70 -21 80 -4 5 7 0 9 -14
6 -45 -12 -77 42 -56 96 8 21 44 20 60 -1 11 -15 13 -16 14 -2 1 39 -44 50
-78 19z"/>
<path d="M1106 839 c-20 -16 -26 -29 -26 -58 0 -93 107 -96 126 -4 5 26 1 37
-19 57 -32 31 -46 32 -81 5z m72 -47 c5 -64 -27 -92 -62 -56 -19 18 -21 75 -4
92 7 7 24 12 38 10 22 -3 25 -9 28 -46z"/>
</g>
</svg>
